<?xml version="1.0" encoding="UTF-8" standalone="no"?>
<!DOCTYPE svg PUBLIC "-//W3C//DTD SVG 20010904//EN"
              "http://www.w3.org/TR/2001/REC-SVG-20010904/DTD/svg10.dtd">

<svg xmlns="http://www.w3.org/2000/svg"
     width="1.98333in" height="1.78667in"
     viewBox="0 0 595 536">
  <path id="Selection #1"
        fill="#dcff26" stroke="none" stroke-width="1"
        d="M 157.00,184.00
           C 162.72,179.42 164.36,173.59 167.00,167.00
             167.00,167.00 177.20,142.00 177.20,142.00
             177.20,142.00 216.99,45.00 216.99,45.00
             216.99,45.00 228.01,18.00 228.01,18.00
             230.40,12.28 234.66,4.74 240.42,1.89
             242.63,0.79 245.57,1.00 248.00,1.00
             248.00,1.00 452.00,1.00 452.00,1.00
             460.26,1.01 463.06,2.43 471.00,3.75
             509.65,10.21 545.53,31.93 559.94,70.00
             563.22,78.70 564.89,94.61 565.00,104.00
             565.46,143.38 544.95,173.77 510.00,191.25
             502.92,194.79 495.73,198.21 488.00,200.10
             472.90,203.79 452.78,202.02 437.00,202.00
             426.40,201.98 410.72,197.07 401.00,192.69
             397.54,191.13 387.36,184.70 384.23,185.70
             380.48,186.90 381.01,192.91 381.00,196.00
             381.00,196.00 381.00,268.00 381.00,268.00
             381.06,281.30 391.08,299.54 396.70,312.00
             396.70,312.00 433.58,396.00 433.58,396.00
             433.58,396.00 446.78,426.00 446.78,426.00
             447.75,428.06 450.70,434.77 452.77,435.45
             456.15,436.57 459.04,429.28 459.99,427.00
             459.99,427.00 472.85,396.00 472.85,396.00
             472.85,396.00 510.58,306.00 510.58,306.00
             513.61,298.78 518.67,282.49 525.09,278.53
             529.34,275.91 533.24,276.01 538.00,276.00
             538.00,276.00 553.00,276.00 553.00,276.00
             553.00,276.00 567.00,275.00 567.00,275.00
             567.00,275.00 575.00,275.00 575.00,275.00
             578.86,275.01 591.71,275.50 593.98,278.56
             597.58,283.43 591.34,294.23 589.28,299.00
             589.28,299.00 565.58,354.00 565.58,354.00
             565.58,354.00 503.42,494.00 503.42,494.00
             503.42,494.00 492.42,519.00 492.42,519.00
             489.90,524.80 487.64,530.58 482.00,534.11
             478.59,536.24 475.82,535.99 472.00,536.00
             472.00,536.00 433.00,536.00 433.00,536.00
             422.32,535.80 418.33,526.42 414.26,518.00
             414.26,518.00 399.14,484.00 399.14,484.00
             399.14,484.00 386.42,456.00 386.42,456.00
             386.42,456.00 376.69,435.00 376.69,435.00
             375.76,433.32 373.73,429.41 371.49,429.42
             369.09,429.44 366.31,433.22 365.10,435.00
             365.10,435.00 353.58,455.00 353.58,455.00
             353.58,455.00 318.28,516.00 318.28,516.00
             312.54,526.08 309.26,535.82 296.00,536.00
             296.00,536.00 256.00,536.00 256.00,536.00
             253.91,536.00 250.93,536.11 249.00,535.40
             241.40,532.60 235.74,518.99 232.25,512.00
             232.25,512.00 193.75,434.00 193.75,434.00
             163.43,373.36 133.59,312.60 105.31,251.00
             105.31,251.00 56.28,137.00 56.28,137.00
             56.28,137.00 15.80,40.00 15.80,40.00
             15.80,40.00 5.93,17.09 5.93,17.09
             4.26,14.39 0.48,11.69 1.66,8.21
             3.47,2.82 13.16,1.01 18.00,1.00
             18.00,1.00 69.00,1.00 69.00,1.00
             75.96,1.13 79.38,4.44 83.37,10.00
             83.37,10.00 97.85,43.00 97.85,43.00
             97.85,43.00 145.42,158.00 145.42,158.00
             145.42,158.00 157.00,184.00 157.00,184.00 Z
           M 298.00,65.10
           C 295.76,65.67 293.10,66.00 291.10,67.16
             286.32,69.94 282.15,81.78 279.99,87.00
             279.99,87.00 254.15,148.00 254.15,148.00
             254.15,148.00 215.58,238.00 215.58,238.00
             210.57,249.75 200.08,268.60 201.09,281.00
             201.66,287.99 210.28,303.06 213.75,310.00
             213.75,310.00 243.75,370.00 243.75,370.00
             243.75,370.00 266.75,416.00 266.75,416.00
             268.69,419.87 273.46,431.26 277.09,432.87
             280.01,434.16 282.12,432.00 283.79,429.89
             283.79,429.89 293.85,413.00 293.85,413.00
             293.85,413.00 321.42,365.00 321.42,365.00
             326.40,356.42 332.48,348.36 331.96,338.00
             331.60,331.04 327.17,324.23 324.31,318.00
             317.90,304.04 307.02,283.04 307.00,268.00
             307.00,268.00 307.00,248.00 307.00,248.00
             307.00,248.00 306.00,232.00 306.00,232.00
             306.00,232.00 306.00,144.00 306.00,144.00
             306.00,144.00 306.83,135.00 306.83,135.00
             307.61,126.92 307.35,120.83 317.00,117.80
             319.89,116.90 323.01,117.00 326.00,117.00
             326.00,117.00 348.00,116.00 348.00,116.00
             348.00,116.00 377.00,116.00 377.00,116.00
             384.60,116.00 390.74,115.44 398.00,118.48
             403.41,120.74 409.52,126.76 415.00,130.30
             424.88,136.69 439.11,141.67 451.00,140.91
             461.58,140.24 474.32,137.02 481.68,128.91
             495.33,113.83 493.20,88.38 478.00,75.21
             470.26,68.51 461.02,66.02 451.00,66.00
             451.00,66.00 420.00,66.00 420.00,66.00
             420.00,66.00 403.00,65.10 403.00,65.10
             403.00,65.10 345.00,65.10 345.00,65.10
             345.00,65.10 298.00,65.10 298.00,65.10 Z" />
</svg>
